# xmcd
#
# Track frame offsets: 
#        150
#        17954
#        45684
#        65969
#        85025
#        98719
#        117323
#        137700
#        154266
#        171375
#        187180
#        202611
#        220552
#
# Disc length: 3338 seconds
#
# Revision: 0
# Processed by: cddbd v1.5.2PL0 Copyright (c) Steve Scherf et al.
# Submitted via: ExactAudioCopy v0.95a5
#
DISCID=b70d080d
DTITLE=Bad News Blues Band - Live at Hot Licks cd 2
DYEAR=2007
DGENRE=Blues
TTITLE0=Vine Avenue Shoo Fly
TTITLE1=Nobody understands Me
TTITLE2=Gangster of Love
TTITLE3=Make Up Your Mind
TTITLE4=Austin Bound
TTITLE5=One More And I Gotta Go
TTITLE6=Liar
TTITLE7=Still Cadillacin'
TTITLE8=Lolita
TTITLE9=Hard Liquor
TTITLE10=Meand Old Life
TTITLE11=Texas
TTITLE12=Johnny's Boogie
EXTD=
EXTT0=
EXTT1=
EXTT2=
EXTT3=
EXTT4=
EXTT5=
EXTT6=
EXTT7=
EXTT8=
EXTT9=
EXTT10=
EXTT11=
EXTT12=
PLAYORDER=
